<?xml version="1.0" encoding="UTF-8"?>
<svg id="Camada_2" xmlns="http://www.w3.org/2000/svg" viewBox="0 0 300.44 57.38">
  <defs>
    <style>
      .cls-1 {
        fill: #fff;
      }
    </style>
  </defs>
  <g id="Camada_1-2" data-name="Camada_1">
    <g>
      <path class="cls-1" d="M42.73,1.93c-.92-.6-1.94-1.07-3.08-1.42C38.51.17,37.34,0,36.14,0c-1.68,0-3.23.29-4.67.87-1.44.58-2.69,1.39-3.75,2.4-1.06,1.02-1.9,2.21-2.51,3.57-.62,1.36-.92,2.82-.92,4.38v17.26s7.11,0,7.11,0V11.22c0-.63.12-1.22.38-1.77.25-.55.59-1.03,1.02-1.44.43-.4.92-.72,1.49-.94.57-.22,1.18-.34,1.85-.34,1.36,0,2.47.44,3.34,1.32.87.88,1.34,1.94,1.4,3.17v17.26s7.11,0,7.11,0V11.22c0-1.91-.47-3.69-1.42-5.32-.95-1.63-2.23-2.95-3.84-3.97Z"/>
      <path class="cls-1" d="M60.84,9.02c.82-.78,1.74-1.35,2.75-1.73,1.01-.37,2.04-.56,3.08-.56,1.07,0,2.12.19,3.13.56,1.01.38,1.93.95,2.75,1.73l5.02-4.76c-1.49-1.41-3.17-2.47-5.05-3.19C70.64.36,68.69,0,66.67,0c-1.9,0-3.77.35-5.62,1.05-1.85.7-3.49,1.69-4.93,2.96-1.44,1.27-2.61,2.81-3.51,4.6-.9,1.8-1.35,3.79-1.35,5.97,0,1.77.36,3.52,1.07,5.25.71,1.74,1.74,3.29,3.08,4.67,1.34,1.38,2.96,2.5,4.86,3.37,1.9.87,4.03,1.3,6.4,1.3,2.02,0,3.97-.36,5.85-1.08,1.88-.72,3.56-1.78,5.05-3.19l-5.02-4.76c-.82.78-1.74,1.35-2.75,1.73-1.01.38-2.06.56-3.13.56-.95,0-1.92-.18-2.92-.54-.99-.36-1.89-.88-2.68-1.55-.79-.67-1.44-1.49-1.94-2.47-.51-.97-.76-2.07-.76-3.3,0-1.02.21-2,.62-2.96.41-.96,1.03-1.83,1.85-2.6Z"/>
      <path class="cls-1" d="M102.37,2.51c-1.23-.78-2.58-1.39-4.03-1.84C96.88.22,95.35,0,93.74,0c-2.09,0-4.06.38-5.93,1.12-1.86.75-3.5,1.78-4.91,3.1-1.41,1.32-2.52,2.86-3.34,4.62-.82,1.77-1.23,3.68-1.23,5.74,0,2.04.4,3.93,1.21,5.7.81,1.77,1.91,3.31,3.32,4.62,1.41,1.32,3.04,2.36,4.91,3.12,1.86.76,3.86,1.15,5.97,1.15,2.09,0,4.07-.38,5.95-1.15,1.88-.76,3.52-1.8,4.91-3.12,1.39-1.32,2.5-2.86,3.32-4.62.82-1.77,1.23-3.66,1.23-5.7,0-2.54-.62-4.85-1.87-6.93-1.25-2.08-2.88-3.79-4.91-5.14ZM101.37,17.64c-.63,1.44-1.63,2.6-3.01,3.48-1.38.88-2.92,1.33-4.62,1.33-1.17,0-2.26-.21-3.27-.63-1.01-.42-1.89-.98-2.63-1.68-.74-.7-1.33-1.53-1.75-2.49-.43-.96-.64-1.97-.64-3.05,0-1.08.21-2.09.64-3.05.43-.96,1.02-1.8,1.78-2.51.76-.72,1.64-1.28,2.66-1.68,1.01-.4,2.09-.61,3.22-.61,1.11,0,2.16.2,3.15.61,1,.4,1.87.96,2.63,1.66.76.7,1.37,1.53,1.82,2.49.46.96.69,1.99.69,3.1,0,1.05-.22,2.06-.66,3.05Z"/>
      <path class="cls-1" d="M131.26,1.93c-.92-.6-1.94-1.07-3.08-1.42C127.04.17,125.87,0,124.67,0c-1.68,0-3.23.29-4.67.87-1.44.58-2.69,1.39-3.74,2.4-1.06,1.02-1.9,2.21-2.51,3.57-.62,1.36-.92,2.82-.92,4.38v17.26s7.11,0,7.11,0V11.22c0-.63.13-1.22.38-1.77.25-.55.59-1.03,1.02-1.44.43-.4.93-.72,1.49-.94.57-.22,1.18-.34,1.85-.34,1.36,0,2.47.44,3.34,1.32.87.88,1.34,1.94,1.4,3.17v17.26s7.11,0,7.11,0V11.22c0-1.91-.47-3.69-1.42-5.32-.95-1.63-2.23-2.95-3.84-3.97Z"/>
      <polygon class="cls-1" points="140 7.43 147.11 7.43 147.11 28.48 154.22 28.48 154.22 7.43 161.33 7.43 161.33 .69 140 .69 140 7.43"/>
      <path class="cls-1" d="M166.73,6.42c-.82,1.17-1.46,2.44-1.92,3.82-.46,1.38-.69,2.83-.69,4.35v13.9s7.11,0,7.11,0v-13.9c0-1.08.21-2.09.64-3.03.43-.94,1.01-1.77,1.75-2.49.74-.72,1.62-1.29,2.63-1.71,1.01-.42,2.1-.63,3.27-.63V0c-2.62,0-5.06.58-7.3,1.73-2.24,1.15-4.08,2.71-5.5,4.69Z"/>
      <path class="cls-1" d="M205.21,2.51c-1.23-.78-2.58-1.39-4.03-1.84C199.73.22,198.2,0,196.58,0c-2.09,0-4.06.38-5.93,1.12-1.86.75-3.5,1.78-4.91,3.1-1.41,1.32-2.52,2.86-3.34,4.62-.82,1.77-1.23,3.68-1.23,5.74,0,2.04.4,3.93,1.21,5.7.81,1.77,1.91,3.31,3.32,4.62,1.41,1.32,3.04,2.36,4.91,3.12,1.87.76,3.86,1.15,5.97,1.15,2.09,0,4.07-.38,5.95-1.15,1.88-.76,3.51-1.8,4.91-3.12,1.39-1.32,2.5-2.86,3.32-4.62.82-1.77,1.23-3.66,1.23-5.7,0-2.54-.63-4.85-1.87-6.93-1.25-2.08-2.88-3.79-4.91-5.14ZM204.22,17.64c-.63,1.44-1.63,2.6-3.01,3.48-1.37.88-2.92,1.33-4.62,1.33-1.17,0-2.26-.21-3.27-.63-1.01-.42-1.89-.98-2.63-1.68-.74-.7-1.33-1.53-1.75-2.49-.43-.96-.64-1.97-.64-3.05,0-1.08.21-2.09.64-3.05.43-.96,1.02-1.8,1.78-2.51.76-.72,1.64-1.28,2.65-1.68,1.01-.4,2.09-.61,3.22-.61,1.1,0,2.16.2,3.15.61,1,.4,1.87.96,2.63,1.66.76.7,1.37,1.53,1.83,2.49.46.96.69,1.99.69,3.1,0,1.05-.22,2.06-.66,3.05Z"/>
      <path class="cls-1" d="M233.41,19.73c0-.22-.03-.43-.05-.64-.44-4.36-4.41-7.77-9.25-7.77h0c-.05,0-.11,0-.16,0,0,0,0,0-.01,0-.05,0-.09,0-.14,0-1.15,0-2.09-.81-2.19-1.85,0-.06,0-.12,0-.18,0-.07,0-.13.01-.2.11-1.03,1.04-1.83,2.18-1.83.02,0,.05,0,.07,0,.03,0,.05,0,.08,0h8.3s0-1.58,0-1.58V.69s-8.3,0-8.3,0c-.02,0-.05,0-.08,0-1.27,0-2.47.24-3.6.7-1.15.47-2.16,1.09-3.01,1.88-.85.79-1.53,1.72-2.04,2.78-.43.9-.66,1.86-.72,2.86,0,.06,0,.12,0,.18,0,.07,0,.13,0,.19,0,.05,0,.1,0,.15,0,.08,0,.16,0,.23.01.19.02.37.05.56,0,0,0,0,0,.01.1.78.32,1.53.65,2.25.38.82.88,1.57,1.49,2.24.17.19.34.37.53.54.85.8,1.86,1.44,3.01,1.91,1.15.47,2.39.7,3.72.7.02,0,.03,0,.05,0,.01,0,.02,0,.03,0,.03,0,.06,0,.08,0,1.14,0,2.08.81,2.17,1.85,0,.06,0,.11,0,.17,0,.06,0,.12,0,.17-.1,1.03-1.03,1.84-2.17,1.84-.03,0-.05,0-.08,0-.03,0-.06,0-.08,0h-8.29s0,1.53,0,1.53v5.03s8.29,0,8.29,0c.17,0,.34,0,.52-.01,4.14-.14,7.57-2.79,8.61-6.35,0,0,0-.01,0-.02.05-.16.09-.33.13-.49.04-.2.08-.39.11-.6.05-.31.08-.63.1-.95v-.33Z"/>
      <polygon class="cls-1" points="19.69 7.43 19.69 .69 7.11 .69 .99 .69 0 .69 0 28.48 .99 28.48 7.11 28.48 19.69 28.48 19.69 21.75 7.11 21.75 7.11 17.78 17.15 17.78 17.15 11.69 7.11 11.69 7.11 7.43 19.69 7.43"/>
      <polygon class="cls-1" points="162.9 33.55 159.81 33.55 158.14 38.22 160.6 38.22 162.9 33.55"/>
      <path class="cls-1" d="M8.15,51.08c0,2.13-.97,3.3-2.72,3.3-1.76,0-2.72-1.17-2.72-3.3v-10.31s-2.7,0-2.7,0v10.31c0,3.69,1.98,5.8,5.43,5.8,3.45,0,5.43-2.12,5.43-5.8v-10.31s-2.7,0-2.7,0v10.31Z"/>
      <polygon class="cls-1" points="25.21 51.34 19.78 40.77 17.11 40.77 17.11 56.67 19.81 56.67 19.81 46.12 25.25 56.67 27.91 56.67 27.91 40.77 25.21 40.77 25.21 51.34"/>
      <polygon class="cls-1" points="33.95 43.28 38.25 43.28 38.25 54.16 33.95 54.16 33.95 56.67 45.24 56.67 45.24 54.16 40.95 54.16 40.95 43.28 45.24 43.28 45.24 40.77 33.95 40.77 33.95 43.28"/>
      <polygon class="cls-1" points="56.69 52.15 53.14 40.77 50.4 40.77 55.43 56.67 57.92 56.67 62.95 40.77 60.21 40.77 56.69 52.15"/>
      <polygon class="cls-1" points="68.78 56.67 79.42 56.67 79.42 54.16 71.49 54.16 71.49 49.42 78.63 49.42 78.63 46.91 71.49 46.91 71.49 43.28 79.42 43.28 79.42 40.77 68.78 40.77 68.78 56.67"/>
      <path class="cls-1" d="M96.35,45.1c0-2.71-1.78-4.33-4.77-4.33h-5.71s0,15.9,0,15.9h2.7s0-7.25,0-7.25h1.51s4.47,7.25,4.47,7.25h3.05s-4.55-7.39-4.55-7.39c2.1-.47,3.3-1.97,3.3-4.18ZM88.57,43.28h3.01c1.47,0,2.07.53,2.07,1.82,0,1.29-.6,1.82-2.07,1.82h-3.01v-3.64Z"/>
      <path class="cls-1" d="M108.27,47.08c-2.33-.68-2.8-1.24-2.8-1.92,0-1.28.97-2.11,2.48-2.11,1.68,0,2.96,1.12,3.26,2.86l.07.39,2.43-.59-.05-.33c-.4-2.89-2.69-4.82-5.71-4.82-3.1,0-5.18,1.85-5.18,4.61,0,2.15,1.4,3.45,4.84,4.46,2.91.85,3.5,1.56,3.5,2.37,0,1.45-1.24,2.39-3.16,2.39-2.12,0-3.49-1.3-3.49-3.3v-.37s-2.59,0-2.59,0v.37c0,3.47,2.44,5.8,6.08,5.8,3.51,0,5.86-1.97,5.86-4.9,0-2.31-1.55-3.68-5.54-4.91Z"/>
      <polygon class="cls-1" points="119.39 43.28 123.68 43.28 123.68 54.16 119.39 54.16 119.39 56.67 130.68 56.67 130.68 54.16 126.38 54.16 126.38 43.28 130.68 43.28 130.68 40.77 119.39 40.77 119.39 43.28"/>
      <polygon class="cls-1" points="136.48 43.28 140.77 43.28 140.77 56.67 143.47 56.67 143.47 43.28 147.76 43.28 147.76 40.77 136.48 40.77 136.48 43.28"/>
      <path class="cls-1" d="M157.95,40.77l-5.03,15.9h2.74s1.36-4.33,1.36-4.33h4.37s1.34,4.33,1.34,4.33h2.74s-5.03-15.9-5.03-15.9h-2.48ZM160.62,49.83h-2.82s1.41-5.37,1.41-5.37l1.41,5.37Z"/>
      <path class="cls-1" d="M181.78,45.1c0-2.71-1.78-4.33-4.77-4.33h-5.71s0,15.9,0,15.9h2.7s0-7.25,0-7.25h1.51s4.47,7.25,4.47,7.25h3.05s-4.55-7.39-4.55-7.39c2.1-.47,3.3-1.97,3.3-4.18ZM174.01,43.28h3.01c1.47,0,2.07.53,2.07,1.82,0,1.29-.6,1.82-2.07,1.82h-3.01v-3.64Z"/>
      <polygon class="cls-1" points="187.74 43.28 192.03 43.28 192.03 54.16 187.74 54.16 187.74 56.67 199.02 56.67 199.02 54.16 194.73 54.16 194.73 43.28 199.02 43.28 199.02 40.77 187.74 40.77 187.74 43.28"/>
      <path class="cls-1" d="M210.47,40.55c-3.87,0-6.08,2.98-6.08,8.17,0,5.19,2.22,8.17,6.08,8.17,3.87,0,6.08-2.98,6.08-8.17,0-5.19-2.22-8.17-6.08-8.17ZM210.47,54.39c-2.94,0-3.38-3.55-3.38-5.67,0-2.12.44-5.67,3.38-5.67,2.94,0,3.38,3.55,3.38,5.67,0,2.12-.44,5.67-3.38,5.67Z"/>
      <path class="cls-1" d="M227.87,47.08c-2.33-.68-2.8-1.24-2.8-1.92,0-1.28.97-2.11,2.48-2.11,1.68,0,2.96,1.12,3.26,2.86l.07.39,2.43-.59-.05-.33c-.4-2.89-2.69-4.82-5.71-4.82-3.1,0-5.18,1.85-5.18,4.61,0,2.15,1.4,3.45,4.84,4.46,2.91.85,3.5,1.56,3.5,2.37,0,1.45-1.24,2.39-3.16,2.39-2.12,0-3.49-1.3-3.49-3.3v-.37h-2.59s0,.37,0,.37c0,3.47,2.44,5.8,6.08,5.8,3.51,0,5.86-1.97,5.86-4.9,0-2.31-1.55-3.68-5.54-4.91Z"/>
      <g>
        <path class="cls-1" d="M267.38,25.58c-.81,0-1.18.57-1.18,1.41v3.39c0,.88.36,1.41,1.18,1.41s1.2-.53,1.2-1.41v-3.39c0-.85-.36-1.41-1.2-1.41Z"/>
        <path class="cls-1" d="M271.75,0C255.9,0,243.06,12.84,243.06,28.69s12.84,28.69,28.69,28.69,28.69-12.84,28.69-28.69S287.59,0,271.75,0ZM262.66,34.03h-7.52v-1.94l4.02-4.47c.4-.43.51-.73.51-1.07,0-.5-.3-.9-.93-.9s-.93.47-.93.97v.16h-2.68v-.16c0-1.99,1.31-3.48,3.78-3.48,2.34,0,3.65,1.45,3.65,3.31,0,1.01-.41,1.81-1.28,2.79l-2.08,2.34h3.46v2.45ZM271.24,30.28c0,2.31-1.45,3.95-3.86,3.95s-3.85-1.64-3.85-3.95v-3.19c0-2.27,1.45-3.95,3.85-3.95s3.86,1.68,3.86,3.95v3.19ZM279.79,34.03h-7.52v-1.94l4.02-4.47c.4-.43.51-.73.51-1.07,0-.5-.3-.9-.93-.9s-.93.47-.93.97v.16h-2.68v-.16c0-1.99,1.31-3.48,3.78-3.48,2.34,0,3.65,1.45,3.65,3.31,0,1.01-.41,1.81-1.28,2.79l-2.08,2.34h3.46v2.45ZM288.36,34.03h-2.74v-4.32h-4.65v-6.37h2.74v4.29h1.91v-4.29h2.74v10.69Z"/>
      </g>
    </g>
  </g>
</svg>